<?xml version="1.0" encoding="UTF-8" standalone="no"?>
<!DOCTYPE svg PUBLIC "-//W3C//DTD SVG 1.1//EN" "http://www.w3.org/Graphics/SVG/1.1/DTD/svg11.dtd">
<svg width="100%" height="100%" viewBox="0 0 121 122" version="1.1" xmlns="http://www.w3.org/2000/svg" xmlns:xlink="http://www.w3.org/1999/xlink" xml:space="preserve" xmlns:serif="http://www.serif.com/" style="fill-rule:evenodd;clip-rule:evenodd;stroke-linejoin:round;stroke-miterlimit:2;">
    <g transform="matrix(1,0,0,1,-188.735,-175.176)">
        <g transform="matrix(1,0,0,1,253.927,290.259)">
            <path d="M0,-15.516C-0.104,-15.43 -0.206,-15.337 -0.307,-15.245C-1.327,-18.092 -2.911,-20.462 -4.848,-22.062C-6.777,-20.469 -8.354,-18.111 -9.376,-15.28C-9.464,-15.36 -9.552,-15.442 -9.643,-15.516C-11.797,-13.739 -13.25,-10.426 -13.25,-6.624C-13.25,-2.823 -11.797,0.489 -9.643,2.267C-9.317,1.999 -9.01,1.69 -8.719,1.355C-7.727,3.48 -6.402,5.262 -4.848,6.546C-3.284,5.255 -1.953,3.457 -0.959,1.314C-0.658,1.666 -0.339,1.988 0,2.267C2.154,0.489 3.607,-2.823 3.607,-6.624C3.607,-10.426 2.154,-13.739 0,-15.516" style="fill:rgb(225,48,23);fill-rule:nonzero;"/>
        </g>
        <g transform="matrix(1,0,0,1,252.808,288.458)">
            <path d="M0,-11.914C-0.08,-11.849 -0.158,-11.777 -0.235,-11.706C-1.019,-13.893 -2.235,-15.713 -3.723,-16.94C-5.204,-15.718 -6.416,-13.907 -7.2,-11.732C-7.268,-11.794 -7.335,-11.856 -7.405,-11.914C-9.059,-10.549 -10.175,-8.006 -10.175,-5.087C-10.175,-2.167 -9.059,0.376 -7.405,1.741C-7.155,1.535 -6.918,1.299 -6.695,1.041C-5.934,2.673 -4.917,4.041 -3.723,5.026C-2.521,4.035 -1.499,2.655 -0.736,1.01C-0.505,1.279 -0.26,1.526 0,1.741C1.654,0.376 2.77,-2.167 2.77,-5.087C2.77,-8.006 1.654,-10.549 0,-11.914" style="fill:rgb(242,176,10);fill-rule:nonzero;"/>
        </g>
        <g transform="matrix(1,0,0,1,251.848,284.064)">
            <path d="M0,-8.824C-0.059,-8.775 -0.117,-8.722 -0.174,-8.67C-0.754,-10.289 -1.655,-11.637 -2.757,-12.547C-3.854,-11.641 -4.751,-10.3 -5.332,-8.689C-5.382,-8.735 -5.432,-8.782 -5.484,-8.824C-6.709,-7.813 -7.536,-5.929 -7.536,-3.767C-7.536,-1.604 -6.709,0.279 -5.484,1.29C-5.299,1.137 -5.124,0.962 -4.958,0.771C-4.395,1.98 -3.641,2.993 -2.757,3.723C-1.867,2.989 -1.11,1.967 -0.545,0.748C-0.374,0.948 -0.192,1.131 0,1.29C1.226,0.279 2.052,-1.604 2.052,-3.767C2.052,-5.929 1.226,-7.813 0,-8.824" style="fill:rgb(234,197,106);fill-rule:nonzero;"/>
        </g>
        <g transform="matrix(1,0,0,1,218.101,274.911)">
            <path d="M0,-15.517C-0.104,-15.431 -0.206,-15.338 -0.307,-15.245C-1.327,-18.092 -2.911,-20.463 -4.848,-22.062C-6.777,-20.47 -8.354,-18.112 -9.375,-15.28C-9.464,-15.36 -9.552,-15.442 -9.643,-15.517C-11.797,-13.739 -13.25,-10.427 -13.25,-6.625C-13.25,-2.823 -11.797,0.489 -9.643,2.266C-9.317,1.998 -9.01,1.69 -8.718,1.354C-7.727,3.479 -6.402,5.261 -4.848,6.545C-3.283,5.254 -1.952,3.457 -0.959,1.314C-0.658,1.666 -0.339,1.987 0,2.266C2.154,0.489 3.607,-2.823 3.607,-6.625C3.607,-10.427 2.154,-13.739 0,-15.517" style="fill:rgb(225,48,23);fill-rule:nonzero;"/>
        </g>
        <g transform="matrix(1,0,0,1,216.982,273.11)">
            <path d="M0,-11.916C-0.08,-11.85 -0.158,-11.778 -0.235,-11.707C-1.019,-13.894 -2.235,-15.714 -3.723,-16.941C-5.204,-15.72 -6.416,-13.908 -7.2,-11.733C-7.268,-11.796 -7.335,-11.858 -7.405,-11.916C-9.059,-10.551 -10.174,-8.008 -10.174,-5.088C-10.174,-2.168 -9.059,0.375 -7.405,1.74C-7.154,1.533 -6.918,1.297 -6.695,1.039C-5.934,2.671 -4.917,4.04 -3.723,5.025C-2.521,4.034 -1.499,2.653 -0.736,1.009C-0.505,1.278 -0.26,1.525 0,1.74C1.654,0.375 2.77,-2.168 2.77,-5.088C2.77,-8.008 1.654,-10.551 0,-11.916" style="fill:rgb(242,176,10);fill-rule:nonzero;"/>
        </g>
        <g transform="matrix(1,0,0,1,216.022,268.717)">
            <path d="M0,-8.826C-0.06,-8.777 -0.117,-8.724 -0.174,-8.671C-0.755,-10.291 -1.656,-11.639 -2.757,-12.548C-3.854,-11.642 -4.752,-10.302 -5.333,-8.691C-5.383,-8.736 -5.433,-8.783 -5.484,-8.826C-6.709,-7.814 -7.536,-5.931 -7.536,-3.768C-7.536,-1.606 -6.709,0.278 -5.484,1.288C-5.299,1.136 -5.125,0.96 -4.958,0.77C-4.395,1.978 -3.642,2.991 -2.757,3.722C-1.868,2.987 -1.111,1.965 -0.546,0.746C-0.375,0.946 -0.193,1.129 0,1.288C1.225,0.278 2.051,-1.606 2.051,-3.768C2.051,-5.931 1.225,-7.814 0,-8.826" style="fill:rgb(254,220,122);fill-rule:nonzero;"/>
        </g>
        <g transform="matrix(1,0,0,1,200.095,218.799)">
            <path d="M0,24.083C-5.706,27.167 -9.742,26.702 -11.033,33.059C-11.211,37.165 -7.931,40.591 -3.821,40.591L40.352,40.591L40.352,-16.508C40.352,0.029 14.2,16.408 0,24.083" style="fill:rgb(219,172,55);fill-rule:nonzero;"/>
        </g>
        <g transform="matrix(1,0,0,1,240.447,194.758)">
            <path d="M0,57.099L-51.712,57.099L-51.386,55.49C-50.094,49.133 -46.058,43.675 -40.352,40.591C-26.152,32.916 0,16.536 0,0L0,57.099Z" style="fill:rgb(254,220,122);fill-rule:nonzero;"/>
        </g>
        <g transform="matrix(1,0,0,-1,0,500)">
            <g>
                <rect x="205.376" y="251.417" width="15.807" height="12.687" style="fill:rgb(254,220,122);"/>
            </g>
        </g>
        <g transform="matrix(1,0,0,1,217.302,248.583)">
            <g>
                <path d="M3.881,-12.687L-11.926,-12.687L-11.926,-9.212L0,-9.212L0,0L3.881,0L3.881,-12.687Z" style="fill:rgb(254,220,122);fill-rule:nonzero;"/>
            </g>
        </g>
        <g transform="matrix(1,0,0,1,279.88,274.911)">
            <path d="M0,-15.517C0.104,-15.431 0.206,-15.338 0.307,-15.245C1.327,-18.092 2.911,-20.463 4.848,-22.062C6.777,-20.47 8.354,-18.112 9.376,-15.28C9.464,-15.36 9.552,-15.442 9.643,-15.517C11.797,-13.739 13.25,-10.427 13.25,-6.625C13.25,-2.823 11.797,0.489 9.643,2.266C9.317,1.998 9.01,1.69 8.719,1.354C7.727,3.479 6.403,5.261 4.848,6.545C3.284,5.254 1.953,3.457 0.959,1.314C0.658,1.666 0.339,1.987 0,2.266C-2.154,0.489 -3.607,-2.823 -3.607,-6.625C-3.607,-10.427 -2.154,-13.739 0,-15.517" style="fill:rgb(225,48,23);fill-rule:nonzero;"/>
        </g>
        <g transform="matrix(1,0,0,1,280.999,273.11)">
            <path d="M0,-11.916C0.08,-11.85 0.158,-11.778 0.235,-11.707C1.019,-13.894 2.235,-15.714 3.723,-16.941C5.204,-15.72 6.416,-13.908 7.2,-11.733C7.268,-11.796 7.335,-11.858 7.405,-11.916C9.059,-10.551 10.175,-8.008 10.175,-5.088C10.175,-2.168 9.059,0.375 7.405,1.74C7.155,1.533 6.918,1.297 6.695,1.039C5.934,2.671 4.917,4.04 3.723,5.025C2.521,4.034 1.5,2.653 0.736,1.009C0.505,1.278 0.26,1.525 0,1.74C-1.654,0.375 -2.77,-2.168 -2.77,-5.088C-2.77,-8.008 -1.654,-10.551 0,-11.916" style="fill:rgb(242,176,10);fill-rule:nonzero;"/>
        </g>
        <g transform="matrix(1,0,0,1,281.96,268.717)">
            <path d="M0,-8.826C0.059,-8.777 0.117,-8.724 0.174,-8.671C0.755,-10.291 1.655,-11.639 2.757,-12.548C3.854,-11.642 4.751,-10.302 5.332,-8.691C5.382,-8.736 5.433,-8.783 5.484,-8.826C6.709,-7.814 7.536,-5.931 7.536,-3.768C7.536,-1.606 6.709,0.278 5.484,1.288C5.299,1.136 5.124,0.96 4.958,0.77C4.395,1.978 3.641,2.991 2.757,3.722C1.867,2.987 1.11,1.965 0.545,0.746C0.374,0.946 0.192,1.129 0,1.288C-1.226,0.278 -2.052,-1.606 -2.052,-3.768C-2.052,-5.931 -1.226,-7.814 0,-8.826" style="fill:rgb(254,220,122);fill-rule:nonzero;"/>
        </g>
        <g transform="matrix(1,0,0,1,297.886,218.799)">
            <path d="M0,24.083C5.706,27.167 9.742,26.702 11.034,33.059C11.212,37.165 7.931,40.591 3.821,40.591L-40.352,40.591L-40.352,-16.508C-40.352,0.029 -14.2,16.408 0,24.083" style="fill:rgb(219,172,55);fill-rule:nonzero;"/>
        </g>
        <g transform="matrix(1,0,0,1,257.534,194.758)">
            <path d="M0,57.099L51.712,57.099L51.386,55.49C50.094,49.133 46.058,43.675 40.352,40.591C26.152,32.916 0,16.536 0,0L0,57.099Z" style="fill:rgb(254,220,122);fill-rule:nonzero;"/>
        </g>
        <g transform="matrix(1,0,0,1,0,-15.521)">
            <g>
                <rect x="276.799" y="251.417" width="15.806" height="12.687" style="fill:rgb(254,220,122);"/>
            </g>
        </g>
        <g transform="matrix(1,0,0,1,280.679,248.583)">
            <g>
                <path d="M-3.881,-12.687L11.926,-12.687L11.926,-9.212L0,-9.212L0,0L-3.881,0L-3.881,-12.687Z" style="fill:rgb(254,220,122);fill-rule:nonzero;"/>
            </g>
        </g>
        <g transform="matrix(1,0,0,1,249.106,259.761)">
            <path d="M0,-84.585C0,-84.585 -20.874,-73.148 -20.874,-45.063L-20.874,0L20.873,0L20.873,-45.063C20.873,-73.148 0,-84.585 0,-84.585" style="fill:rgb(244,147,135);fill-rule:nonzero;"/>
        </g>
        <g transform="matrix(0,1,1,0,242.334,206.137)">
            <path d="M8.561,-14.102L53.624,-14.102L53.624,8.068C26.066,8.561 -30.961,6.772 -30.961,6.772C-30.961,6.772 -19.524,-14.102 8.561,-14.102" style="fill:rgb(252,119,97);fill-rule:nonzero;"/>
        </g>
        <g transform="matrix(1,0,0,1,249.106,259.761)">
            <path d="M0,-84.585C0,-84.585 -20.874,-73.148 -20.874,-45.063L-20.874,0L-14.079,0L-14.079,-45.063C-14.079,-73.148 0,-84.585 0,-84.585" style="fill:rgb(214,85,67);fill-rule:nonzero;"/>
        </g>
        <g transform="matrix(1,0,0,1,249.106,259.761)">
            <path d="M0,-84.585C0,-84.585 20.873,-73.148 20.873,-45.063L20.873,0L14.078,0L14.078,-45.063C14.078,-73.148 0,-84.585 0,-84.585" style="fill:rgb(244,192,189);fill-rule:nonzero;"/>
        </g>
        <g transform="matrix(-1,0,0,1,238.67,259.76)">
            <path d="M-20.873,18.349L0.001,18.349L10.437,0L-31.31,0L-20.873,18.349Z" style="fill:rgb(254,220,122);fill-rule:nonzero;"/>
        </g>
        <g transform="matrix(0.494419,0.869224,0.869224,-0.494419,240.547,256.938)">
            <g>
                <path d="M-3.635,-12.099L17.475,-12.099L20.802,-6.25L-0.308,-6.25L-3.635,-12.099Z" style="fill:rgb(254,220,122);fill-rule:nonzero;"/>
            </g>
        </g>
        <g transform="matrix(-0.494419,0.869224,0.869224,0.494419,265.102,280.932)">
            <g>
                <path d="M-20.802,-6.25L0.308,-6.25L3.635,-12.099L-17.475,-12.099L-20.802,-6.25Z" style="fill:rgb(254,220,122);fill-rule:nonzero;"/>
            </g>
        </g>
        <g transform="matrix(-1,0,0,1,498.262,-30.787)">
            <g>
                <rect x="228.307" y="263.092" width="41.648" height="4.603" style="fill:rgb(254,220,122);"/>
            </g>
        </g>
        <g transform="matrix(-1,0,0,1,498.262,-7.085)">
            <g>
                <rect x="228.307" y="251.241" width="41.648" height="4.603" style="fill:rgb(254,220,122);"/>
            </g>
        </g>
        <g transform="matrix(-1,0,0,1,249.648,209.407)">
            <path d="M0,-14.649C0,-14.649 12.833,-11.34 12.833,0C12.833,0 5.853,-4.295 0,-4.295C-5.853,-4.295 -12.833,0 -12.833,0C-12.833,-11.34 0,-14.649 0,-14.649" style="fill:rgb(214,85,67);fill-rule:nonzero;"/>
        </g>
    </g>
</svg>
